<?xml version="1.0" standalone="no"?>
<!DOCTYPE svg PUBLIC "-//W3C//DTD SVG 1.1//EN" "http://www.w3.org/Graphics/SVG/1.1/DTD/svg11.dtd">
<svg xmlns:inkscape="http://www.inkscape.org/namespaces/inkscape" xmlns:sodipodi="http://sodipodi.sourceforge.net/DTD/sodipodi-0.dtd" xmlns="http://www.w3.org/2000/svg" xmlns:svg="http://www.w3.org/2000/svg" version="1.1" id="svg2" width="653.3333129882812" height="613.3333129882812" viewBox="0 0 653.33331 613.33331" sodipodi:docname="LOGO SATURNO.eps">
  <defs id="defs6"/>
  <sodipodi:namedview id="namedview4" pagecolor="#ffffff" bordercolor="#000000" borderopacity="0.25" inkscape:showpageshadow="2" inkscape:pageopacity="0.0" inkscape:pagecheckerboard="0" inkscape:deskcolor="#d1d1d1"/>
  <g id="g8" inkscape:groupmode="layer" inkscape:label="ink_ext_XXXXXX" transform="matrix(1.3333333,0,0,-1.3333333,0,613.33333)">
    <g id="g10" transform="scale(0.1)">
      <path d="m 1824.82,1965.95 c -104.94,319.9 31.44,600.61 268.5,693.01 379.92,104.03 338.59,338.96 82.5,294 176.06,116.3 548.46,79.22 643.5,-111 36.27,-154.36 -111.23,-197.18 -307.5,-129.01 -84.27,28.74 -153.73,-40.22 -99,-122.99 138.98,-189.24 642.03,-164.76 960,21 -605.24,1124.88 -2279.11,409.54 -1884,-768.01 112,41 224,82 336,123" style="fill:#000000;fill-opacity:1;fill-rule:evenodd;stroke:none" id="path12"/>
      <path d="m 1626.82,1563.94 c 48,16.01 96,32 144,48.01 525.82,-708.141 1640.69,-263.37 1603.51,595.5 315,94 349.5,213.5 486,201 346.98,-6.27 430.53,-420.74 159,-651 -155.67,-120.86 -333.32,-172.15 -537,-141 22,44 44.01,88 66.01,132 322.15,-13.04 579.38,238.5 452.99,429 -79.23,110.31 -220.26,110.18 -303,27 -48.63,-47.5 -102.62,-73.5 -167.25,-99 -23.12,-400.96 -277.62,-819.55 -786.75,-963 -412.66,-109.76 -911.34,49.75 -1117.51,421.49" style="fill:#000000;fill-opacity:1;fill-rule:evenodd;stroke:none" id="path14"/>
      <path d="m 1929.08,1666.7 c 38.5,14.5 77,29 115.5,43.5 154.87,-144.94 360.62,-213.57 619.5,-202.5 -147.29,-87.69 -545.21,-48.31 -735,159" style="fill:#000000;fill-opacity:1;fill-rule:evenodd;stroke:none" id="path16"/>
      <path d="m 1348.57,2077.7 c -1.5,21.5 -3,43 -4.5,64.5 -413.09,-148.78 -794.91,-346.71 -1152,-583.5 -279.9802,-198.75 -235.5075,-338.76 105.004,-279 653.188,99.94 2792.816,851.05 4128.006,1497 571.35,260.54 642.7,486.48 75,411 -416.97,-54.63 -817.03,-150.36 -1206.01,-273 17,-16 34.01,-32 51.01,-48 307.02,89.14 781.62,169.76 846,75 72.77,-75.09 -268.87,-250.16 -507,-360 -906.05,-397.78 -1835.96,-746.22 -2802.006,-1020 -315.816,-80.31 -391.187,22.81 -120,207 164.254,115.24 361.986,220.51 586.496,309" style="fill:#000000;fill-opacity:1;fill-rule:evenodd;stroke:none" id="path18"/>
      <path d="m 2934.09,1108.73 c 18,-11.5 36,-23 54,-34.5 -196.83,-134.597 -775.67,-143.421 -901.5,-3 307.78,-59.73 595.72,-62.79 847.5,37.5" style="fill:#000000;fill-opacity:1;fill-rule:evenodd;stroke:none" id="path20"/>
      <path d="m 3390.09,1470.23 c 219.21,2.91 438.7,4.46 666,-33 642.03,-223.82 -1136.63,-854.406 -2541,-546.007 -798.156,179.697 -488.93,384.997 140.99,456.007 -381.79,-95.67 -620.38,-177.36 -509.99,-225 1077.92,-525.476 4180.59,135.69 2244,348" style="fill:#000000;fill-opacity:1;fill-rule:evenodd;stroke:none" id="path22"/>
      <path d="m 1284.08,3000.23 c 212.9,-8.82 332.91,205.06 130.5,322.5 -368.13,151.06 -449.115,-158.49 -306,-262.5 54.4,-32.14 106.16,-58.44 175.5,-60 z m -179.25,179.24 c 46.26,30.19 97.99,19.33 152.25,-10.49 82.7,-50.16 155.3,-60.62 210,-0.75 9,10.11 2.07,16.15 -8.25,11.24 -51.87,-23.8 -106.88,-8.26 -162.75,18.01 -90.65,53.76 -156.6,51.23 -197.25,-9 -3.85,-7.65 -0.88,-14.04 6,-9.01" style="fill:#000000;fill-opacity:1;fill-rule:evenodd;stroke:none" id="path24"/>
      <path d="m 1936.04,3633.68 c -25.04,-150.99 116.85,-255.38 218.4,-121.43 140.12,249.13 -73.42,334.12 -160.17,241.26 -27.7,-35.95 -51.01,-70.53 -58.23,-119.83 z m 143.57,112 c 17.44,-35.64 5.15,-71.56 -20.9,-107.61 -43.03,-54.54 -56.89,-105.37 -19.03,-149.64 6.41,-7.3 11.33,-2.89 8.75,4.89 -12.4,39.07 3.52,76.92 27.16,114.43 46.32,59.89 50.32,107.13 10.96,141.41 -5.11,3.42 -9.92,1.86 -6.94,-3.48" style="fill:#000000;fill-opacity:1;fill-rule:evenodd;stroke:none" id="path26"/>
      <path d="m 2352.27,3604.96 c -52.67,-86.48 8.63,-185.6 104.04,-128.49 147.54,118.28 37.48,223.19 -38.7,187.64 -25.88,-15.22 -48.73,-30.69 -65.34,-59.15 z m 115.78,33.26 c 1.9,-26.18 -14.52,-45.19 -39.41,-60.88 -39.88,-22.84 -60.94,-50.62 -48.64,-87.13 2.13,-6.07 6.23,-4.58 6.57,0.84 2.04,27.04 21.16,46.33 44.95,63.52 43.21,25.31 57.34,53.31 41.65,84.07 -2.29,3.36 -5.63,3.6 -5.12,-0.42" style="fill:#000000;fill-opacity:1;fill-rule:evenodd;stroke:none" id="path28"/>
      <path d="m 2937.72,3999.7 c 31.2,-188.11 -145.58,-318.17 -272.09,-151.29 -174.56,310.37 91.47,416.25 199.55,300.56 34.5,-44.78 63.55,-87.86 72.54,-149.27 z m -178.86,139.52 c -21.73,-44.4 -6.41,-89.15 26.03,-134.06 53.62,-67.95 70.88,-131.28 23.71,-186.43 -7.99,-9.09 -14.12,-3.6 -10.89,6.1 15.45,48.67 -4.39,95.83 -33.85,142.56 -57.7,74.61 -62.68,133.46 -13.65,176.17 6.37,4.26 12.37,2.32 8.65,-4.34" style="fill:#000000;fill-opacity:1;fill-rule:evenodd;stroke:none" id="path30"/>
      <path d="m 2064.74,4390.14 c -45.66,-208.13 144.12,-363.46 294.94,-184.53 212.7,336.31 -78.08,469.82 -205.37,346.94 -41.1,-47.99 -75.99,-94.4 -89.57,-162.41 z m 207.65,145.4 c 21.7,-50.81 2.02,-99.86 -36.77,-148.12 -63.76,-72.74 -86.67,-142.41 -37.21,-206.68 8.39,-10.61 15.54,-4.84 12.51,6.18 -14.44,55.21 10.42,106.69 45.99,157.15 68.69,79.93 77.65,145.32 25.39,195.81 -6.86,5.12 -13.67,3.3 -9.91,-4.34" style="fill:#000000;fill-opacity:1;fill-rule:evenodd;stroke:none" id="path32"/>
      <path d="m 710.75,8.60938 c 87.363,0 164.75,51.53122 164.75,134.55062 0,64.461 -45.156,106.293 -113.309,135.016 -47.097,19.762 -77.945,26.32 -77.945,46.359 0,14.867 17.082,27.059 40.817,27.059 20.875,0 54.394,-9.973 67.417,-33.063 l 66.766,64.461 c -17.082,43.035 -68.98,74.434 -135.473,74.434 -82.839,0 -154.593,-53.84 -154.593,-129.383 0,-65.844 47.375,-102.23 102.597,-126.055 42.758,-19.023 87.364,-38.785 87.364,-61.32 0,-17.824 -24.012,-26.781 -48.668,-26.781 -36.477,0 -70.368,16.254 -88.469,43.035 L 551.816,88.2148 C 573.797,40.1914 638.996,8.60938 710.75,8.60938 Z m 651.38,6.09372 h 126.89 L 1286.13,456.41 h -54.95 L 1028.57,14.7031 h 126.61 l 22.16,51.0703 h 162.91 z m -148.22,135.6599 44.88,103.434 44.61,-103.434 z m 717.13,300.414 h -324.79 v -108.05 h 104.63 V 14.7031 h 115.81 V 342.727 h 104.35 z M 2311.57,2.51563 c 99.92,0 180.91,70.36717 180.91,170.38237 V 450.777 H 2376.12 V 173.176 c 0,-35.742 -31.96,-60.399 -64.83,-60.399 -33.06,0 -64.27,24.106 -64.27,60.399 V 450.777 H 2130.65 V 172.898 c 0,-100.0152 80.99,-170.38237 180.92,-170.38237 z M 3086.79,14.7031 2969.87,189.797 c 42.76,19.394 75.54,64.922 75.54,119.226 0,78.219 -67.41,141.754 -161.7,141.754 h -165.49 l 0.55,-436.0739 H 2834.3 V 204.109 L 2951.21,14.7031 Z M 2833.75,346.605 h 47.47 c 24.47,0 47.28,-16.71 47.28,-43.773 0,-26.781 -22.53,-44.141 -47.28,-43.863 l -47.47,0.277 z m 709.1,104.727 V 238.836 l -223.67,216.281 h -37.31 V 14.7031 h 115.81 V 227.754 L 3621.9,10.2695 h 36.76 V 451.332 Z M 4108.53,3.62109 c 136.03,0 239.65,98.35191 239.65,228.28491 0,131.137 -103.62,230.414 -239.38,230.414 -135.75,0 -239.36,-99.277 -239.36,-230.414 0,-129.933 103.43,-228.28491 239.09,-228.28491 z m 0.27,110.26591 c -69.35,0 -122.45,51.715 -122.45,118.855 0,67.508 53.1,119.5 122.45,119.5 69.36,0 122.46,-51.992 122.46,-119.5 0,-67.14 -53.1,-118.855 -122.46,-118.855" style="fill:#000000;fill-opacity:1;fill-rule:nonzero;stroke:none" id="path34"/>
    </g>
  </g>
</svg>